#!OML:ASF E:\Mandelcareful walks\Project 1\Capture day 1\Session 1\Subject1.ASF
:FULLY-SPECIFIED
:DEGREES
1383
root 5.61478 14.9336 13.5582 -289.996 -79.1618 316.14
lowerback 16.9944 8.3425 -8.85201
upperback 8.40068 9.21728 4.65503
thorax -2.51187 4.12883 8.07662
lowerneck -25.6646 -10.8114 -11.5479
upperneck 19.8737 -14.0766 12.528
head 12.6261 -5.62164 3.92676
rclavicle -8.74653e-015 5.88403e-014
rhumerus -10.2327 -13.8208 -71.3934
rradius 48.875
rwrist -23.7072
rhand -17.3987 -20.9199
rfingers 7.12502
rthumb 8.85066 -50.7143
lclavicle -8.74653e-015 5.88403e-014
lhumerus -15.8307 -14.5134 82.447
lradius 57.7941
lwrist 24.7233
lhand -28.3013 -16.5118
lfingers 7.12502
lthumb -1.67687 13.4614
rfemur -59.3338 0.702303 1.79413
rtibia 71.4877
rfoot -3.28319 -12.0096
rtoes 4.11925
lfemur -70.947 31.3392 -28.5023
ltibia 72.068
lfoot -27.2854 -2.53559
ltoes 5.38641
1384
root 5.56851 15.0089 13.7209 -294.677 -78.8161 318.926
lowerback 18.5253 8.0584 -7.42017
upperback 9.02439 8.85706 4.68338
thorax -2.36697 3.90805 7.28812
lowerneck -25.8235 -10.9847 -11.3462
upperneck 19.8193 -14.426 12.6894
head 12.6839 -5.73441 3.87408
rclavicle 1.30403e-013 3.10104e-014
rhumerus -10.5031 -14.3375 -71.3085
rradius 48.702
rwrist -23.9667
rhand -17.4515 -20.8513
rfingers 7.12502
rthumb 8.79965 -50.6478
lclavicle 1.30403e-013 3.10104e-014
lhumerus -15.7304 -14.9038 82.4747
lradius 58.2056
lwrist 24.6558
lhand -28.1471 -16.0393
lfingers 7.12502
lthumb -1.52797 13.935
rfemur -58.2426 -0.21592 4.29156
rtibia 72.2401
rfoot -4.92113 -12.1405
rtoes 1.03341
lfemur -67.3933 31.1072 -27.1695
ltibia 71.1185
lfoot -27.3862 -3.59395
ltoes 8.86958
1385
root 5.52507 15.0818 13.8689 -298.437 -78.3564 320.499
lowerback 19.9989 7.77253 -6.47696
upperback 9.39398 8.49227 5.07459
thorax -2.58586 3.70479 7.16718
lowerneck -23.9365 -10.8493 -11.6645
upperneck 19.2319 -14.3122 12.9293
head 12.1383 -5.77888 4.08445
rclavicle -3.97569e-015 5.1684e-014
rhumerus -11.5477 -13.9135 -70.7991
rradius 48.5296
rwrist -24.2914
rhand -17.3107 -21.034
rfingers 7.12502
rthumb 8.9355 -50.8247
lclavicle -3.97569e-015 5.1684e-014
lhumerus -16.7052 -14.8644 83.0108
lradius 58.7839
lwrist 24.5816
lhand -28.5942 -15.7676
lfingers 7.12502
lthumb -1.95983 14.2031
rfemur -56.9003 -1.14307 7.10572
rtibia 72.5225
rfoot -6.55076 -12.4117
rtoes -1.79746
lfemur -63.8805 31.2007 -25.9925
ltibia 70.0045
lfoot -27.3895 -3.03737
ltoes 5.7838
1386
root 5.48315 15.1458 13.9818 -301.153 -77.961 321.931
lowerback 20.843 7.45062 -6.0732
upperback 9.50624 8.08961 5.55578
thorax -2.8368 3.49652 7.51195
lowerneck -22.398 -10.7851 -12.66
upperneck 18.8035 -14.1651 13.5419
head 11.8078 -5.7947 4.5426
rclavicle -4.13472e-014 2.3059e-014
rhumerus -12.3924 -13.1967 -70.1787
rradius 48.3487
rwrist -24.1512
rhand -17.719 -20.4698
rfingers 7.12502
rthumb 8.54148 -50.2771
lclavicle -4.13472e-014 2.3059e-014
lhumerus -17.532 -14.4696 83.6898
lradius 59.104
lwrist 24.7031
lhand -29.053 -16.0809
lfingers 7.12502
lthumb -2.4029 13.8853
rfemur -56.6197 -2.29257 9.91698
rtibia 72.4015
rfoot -9.41198 -12.5295
rtoes -10.3971
lfemur -61.4113 31.0913 -25.211
ltibia 68.9632
lfoot -27.3188 -3.07866
ltoes 5.36558
1387
root 5.45349 15.2147 14.1091 -306.987 -77.8982 324.054
lowerback 24.2183 7.33141 -4.60583
upperback 10.7005 7.83132 5.43146
thorax -2.94982 3.27378 6.42457
lowerneck -23.2628 -11.0085 -12.0264
upperneck 18.6373 -14.5759 13.5412
head 11.9161 -5.89779 4.32606
rclavicle -5.48646e-014 -5.24792e-014
rhumerus -12.1851 -14.0671 -70.5581
rradius 48.1639
rwrist -23.6251
rhand -17.7807 -19.9359
rfingers 7.12502
rthumb 8.48196 -49.7456
lclavicle -5.48646e-014 -5.24792e-014
lhumerus -16.7296 -14.8959 83.166
lradius 59.263
lwrist 24.4964
lhand -28.7893 -15.6277
lfingers 7.12502
lthumb -2.14819 14.3413
rfemur -53.6218 -3.08816 12.257
rtibia 71.8335
rfoot -10.7295 -12.2255
rtoes -7.40981
lfemur -55.7634 31.3738 -23.1936
ltibia 67.8671
lfoot -27.4057 -3.51436
ltoes 5.58389
1388
root 5.43838 15.2926 14.2201 -314.414 -77.9418 325.594
lowerback 29.197 7.28599 -3.40308
upperback 12.4929 7.49263 5.67122
thorax -3.11343 2.92612 5.87931
lowerneck -23.7025 -11.1341 -12.1321
upperneck 18.3533 -14.7474 13.9739
head 11.9694 -5.92046 4.4513
rclavicle 8.0309e-014 -5.56597e-014
rhumerus -11.7088 -14.2744 -70.7564
rradius 47.8454
rwrist -23.2462
rhand -17.1695 -20.2284
rfingers 7.12502
rthumb 9.07179 -50.0133
lclavicle 8.0309e-014 -5.56597e-014
lhumerus -16.2009 -14.5454 82.9494
lradius 59.4458
lwrist 23.8682
lhand -28.4021 -15.1571
lfingers 7.12502
lthumb -1.77425 14.8153
rfemur -48.027 -3.83405 14.3418
rtibia 70.7981
rfoot -11.225 -11.5394
rtoes -1.86041
lfemur -47.1937 31.9766 -19.7213
ltibia 66.7092
lfoot -27.7382 -4.16858
ltoes 5.39929
1389
root 5.41744 15.3505 14.2949 -319.259 -78.0328 326.485
lowerback 32.9507 7.35274 -3.1093
upperback 13.0553 7.29723 6.21308
thorax -3.71435 2.68866 5.76887
lowerneck -22.7838 -11.1608 -12.7034
upperneck 17.9854 -14.8301 14.6513
head 11.7921 -5.97568 4.79976
rclavicle -4.37326e-014 1.82882e-014
rhumerus -12.135 -13.9026 -70.6276
rradius 47.61
rwrist -23.3197
rhand -17.1571 -20.0209
rfingers 7.12502
rthumb 9.08376 -49.8053
lclavicle -4.37326e-014 1.82882e-014
lhumerus -16.6156 -14.4137 83.1634
lradius 59.4752
lwrist 24.3828
lhand -27.6297 -14.265
lfingers 7.12502
lthumb -1.02822 15.7123
rfemur -44.624 -4.91956 16.3681
rtibia 69.5347
rfoot -11.7947 -10.527
rtoes -0.840531
lfemur -41.1029 32.3909 -17.3472
ltibia 65.6147
lfoot -27.9439 -4.72147
ltoes 5.19855
1390
root 5.39925 15.3989 14.3634 -324.231 -78.2096 329.011
lowerback 35.6427 7.24433 -3.01766
upperback 13.39 6.94686 6.22275
thorax -4.24383 2.4334 5.71724
lowerneck -22.9866 -11.202 -12.5632
upperneck 18.0831 -14.9364 14.6725
head 11.8743 -5.99941 4.75852
rclavicle 4.05521e-014 -2.38542e-015
rhumerus -12.2875 -13.5099 -70.8732
rradius 47.6166
rwrist -23.6907
rhand -17.6177 -19.5391
rfingers 7.12502
rthumb 8.63924 -49.3423
lclavicle 4.05521e-014 -2.38542e-015
lhumerus -16.5789 -14.2743 83.0168
lradius 59.2704
lwrist 24.9451
lhand -29.4927 -19.1628
lfingers 7.12502
lthumb -2.82753 10.7982
rfemur -42.962 -6.3023 17.9185
rtibia 68.1182
rfoot -12.7617 -8.88492
rtoes -3.28417
lfemur -36.9953 32.4382 -16.283
ltibia 64.6734
lfoot -28.0852 -4.97977
ltoes 5.01824
1391
root 5.38939 15.4424 14.4346 -329.608 -78.3553 332.766
lowerback 37.9666 7.05207 -2.91881
upperback 13.1996 6.59076 6.07774
thorax -5.00266 2.22316 5.55774
lowerneck -22.6382 -11.2042 -12.3723
upperneck 18.0946 -14.9965 14.4857
head 11.787 -6.05021 4.65501
rclavicle 4.69132e-014 -5.56597e-015
rhumerus -12.9402 -13.3172 -70.9036
rradius 47.9816
rwrist -23.9781
rhand -17.598 -19.8192
rfingers 7.12502
rthumb 8.65826 -49.6217
lclavicle 4.69132e-014 -5.56597e-015
lhumerus -16.8666 -14.2125 82.9195
lradius 59.2518
lwrist 24.386
lhand -27.9634 -12.0982
lfingers 7.12502
lthumb -1.35057 17.8772
rfemur -42.2045 -7.8339 19.1286
rtibia 66.6023
rfoot -13.5855 -6.74538
rtoes -5.16778
lfemur -33.9182 32.1677 -15.9407
ltibia 63.8702
lfoot -28.3027 -5.25312
ltoes 5.76733
